<?xml version="1.0" encoding="UTF-8"?>
<svg xmlns="http://www.w3.org/2000/svg" xmlns:xlink="http://www.w3.org/1999/xlink" viewBox="0 0 48 48" width="48px" height="48px">
<g id="surface23939647">
<path style=" stroke:none;fill-rule:nonzero;fill:rgb(80.000001%,80.000001%,80.000001%);fill-opacity:0;" d="M 24 24.238281 C 23.867188 24.238281 23.761719 24.132812 23.761719 24 C 23.761719 23.867188 23.867188 23.761719 24 23.761719 C 24.132812 23.761719 24.238281 23.867188 24.238281 24 C 24.238281 24.132812 24.132812 24.238281 24 24.238281 Z M 24 24.238281 "/>
<path style=" stroke:none;fill-rule:nonzero;fill:rgb(24.705882%,31.764707%,70.980394%);fill-opacity:0;" d="M 24 -4 C 8.535156 -4 -4 8.535156 -4 24 C -4 39.464844 8.535156 52 24 52 C 39.464844 52 52 39.464844 52 24 C 52 8.535156 39.464844 -4 24 -4 Z M 24 -4 "/>
<path style=" stroke:none;fill-rule:nonzero;fill:rgb(100%,100%,100%);fill-opacity:1;" d="M 31.515625 24 L 26.800781 24 L 26.800781 40.800781 L 19.800781 40.800781 L 19.800781 24 L 15.601562 24 L 15.601562 18.398438 L 19.800781 18.398438 L 19.800781 15.027344 C 19.804688 10.113281 21.84375 7.199219 27.628906 7.199219 L 32.398438 7.199219 L 32.398438 12.800781 L 29.199219 12.800781 C 26.945312 12.800781 26.800781 13.640625 26.800781 15.210938 L 26.800781 18.398438 L 32.398438 18.398438 Z M 31.515625 24 "/>
</g>
</svg>
